<svg xmlns="http://www.w3.org/2000/svg" width="4167" height="2421" viewBox="0 0 4167 2421">
  <defs>
    <style>
      .cls-1 {
        fill: #ec0684;
      }

      .cls-1, .cls-2 {
        fill-rule: evenodd;
      }

      .cls-2 {
        fill: #ef4aa4;
      }
    </style>
  </defs>
  <path id="Shape_20_copy_2" data-name="Shape 20 copy 2" class="cls-1" d="M-0.986,1860.36l258.151,35.73C810.15,1950.98,1308.39,1539.3,1308.39,1539.3c240.9-247,640.58-647.7,640.58-647.7,416.11-378.745,969.1-367.765,969.1-367.765C3482,468.938,3920.01,787.3,3920.01,787.3,3142.55-107.41,2469.11,7.858,2469.11,7.858c-542.04-49.4-1133.35,461.08-1133.35,461.08-613.211,543.422-1056.7,499.506-1056.7,499.506C167.413,979.966,2.608,975.907,2.608,975.907Z"/>
  <path id="Shape_20_copy_2-2" data-name="Shape 20 copy 2" class="cls-2" d="M-0.843,2405l39.653-2.08c1047.57,51.22,1795.84-1123.43,1795.84-1123.43,459.9-644.05,963.62-700.771,963.62-700.771C2227.03,489.065,1528.04,1360,1528.04,1360,987.829,1956.47,403.817,1916.22,403.817,1916.22c-170.685,0-403.493-31.99-403.493-31.99Z"/>
</svg>
