<svg xmlns="http://www.w3.org/2000/svg" width="4167" height="2421" viewBox="0 0 4167 2421">
  <defs>
    <style>
      .cls-1 {
        fill: #fac213;
      }

      .cls-1, .cls-2 {
        fill-rule: evenodd;
      }

      .cls-2 {
        fill: #e7c14c;
      }
    </style>
  </defs>
  <path id="Shape_20_copy_2" data-name="Shape 20 copy 2" class="cls-1" d="M4167.99,547.642L3909.83,511.91C3356.85,457.017,2858.61,868.7,2858.61,868.7c-240.9,247-640.58,647.7-640.58,647.7-416.11,378.75-969.1,367.77-969.1,367.77C685,1939.06,246.988,1620.7,246.988,1620.7c777.462,894.71,1450.9,779.44,1450.9,779.44,542.04,49.4,1133.35-461.08,1133.35-461.08,613.21-543.42,1056.7-499.5,1056.7-499.5,111.65-11.53,276.45-7.47,276.45-7.47Z"/>
  <path id="Shape_20_copy_2-2" data-name="Shape 20 copy 2" class="cls-2" d="M4167.84,3l-39.65,2.081C3080.62-46.144,2332.35,1128.51,2332.35,1128.51c-459.9,644.05-963.62,700.77-963.62,700.77C1939.97,1918.94,2638.96,1048,2638.96,1048c540.21-596.471,1124.22-556.217,1124.22-556.217,170.69,0,403.5,31.983,403.5,31.983Z"/>
</svg>
