<?xml version="1.0" standalone="no"?>
<!DOCTYPE svg PUBLIC "-//W3C//DTD SVG 20010904//EN"
 "http://www.w3.org/TR/2001/REC-SVG-20010904/DTD/svg10.dtd">
<svg version="1.0" xmlns="http://www.w3.org/2000/svg"
 width="1787.000000pt" height="1787.000000pt" viewBox="0 0 1787.000000 1787.000000"
 preserveAspectRatio="xMidYMid meet">
<metadata>
Created by potrace 1.11, written by Peter Selinger 2001-2013
</metadata>
<g transform="translate(0.000000,1787.000000) scale(0.100000,-0.100000)"
fill="#000000" stroke="none">
<path d="M8946 13630 c-14 -17 -395 -407 -847 -868 -716 -729 -904 -928 -1044
-1105 l-30 -38 -70 88 c-38 48 -119 139 -180 203 -61 63 -440 481 -843 928
-404 446 -737 812 -742 812 -11 0 -1670 -1695 -1767 -1805 -464 -530 -753
-1173 -802 -1787 -14 -172 2 -575 29 -737 69 -417 230 -793 484 -1131 87 -117
301 -337 421 -435 343 -279 773 -469 1220 -540 138 -22 472 -31 621 -16 440
44 864 202 1219 454 122 87 279 221 365 313 l64 69 106 -105 c483 -481 1110
-740 1790 -740 682 0 1310 259 1791 739 l106 106 99 -100 c120 -121 251 -228
404 -330 111 -74 117 -77 160 -71 838 118 1564 134 2359 55 l204 -20 71 47
c270 178 528 439 712 719 436 664 530 1463 268 2298 -80 253 -233 568 -395
812 -131 196 -238 330 -401 500 -68 72 -443 483 -833 915 -389 432 -713 786
-719 787 -6 1 -308 -302 -671 -673 -891 -909 -1065 -1090 -1169 -1219 -49 -61
-95 -116 -101 -123 -9 -10 -26 6 -79 73 -37 47 -120 140 -185 208 -64 67 -446
488 -850 935 -403 446 -734 812 -736 812 -2 0 -15 -14 -29 -30z m4210 -2304
c335 -71 497 -284 482 -632 -4 -94 -8 -110 -42 -178 -40 -82 -110 -153 -183
-189 -24 -12 -43 -23 -43 -26 0 -4 31 -19 68 -36 138 -62 243 -197 273 -353
15 -80 7 -296 -15 -377 -86 -320 -365 -485 -821 -485 -504 0 -774 212 -792
623 l-6 117 220 0 220 0 6 -62 c3 -35 13 -84 22 -110 23 -65 92 -140 157 -169
47 -21 67 -24 183 -24 127 0 132 1 197 33 118 58 163 139 162 297 0 72 -4 100
-23 142 -30 68 -102 134 -172 161 -61 22 -182 42 -260 42 l-49 0 0 149 0 148
98 6 c169 10 262 55 311 151 34 65 41 199 16 276 -39 117 -132 165 -304 158
-105 -5 -142 -18 -199 -72 -55 -51 -102 -163 -102 -243 l0 -33 -156 0 c-171 0
-208 9 -240 58 -23 35 -23 121 1 192 84 261 280 412 584 450 92 12 322 4 407
-14z m-4086 4 c300 -37 490 -168 576 -397 98 -258 62 -538 -93 -726 -84 -102
-335 -306 -608 -492 -156 -107 -215 -165 -230 -228 l-7 -27 486 0 486 0 0
-190 0 -190 -800 0 -800 0 0 28 c0 58 32 220 60 304 88 263 232 434 536 638
324 217 474 337 519 415 58 97 68 254 23 357 -83 194 -440 225 -574 50 -47
-61 -73 -137 -86 -253 l-12 -99 -150 0 c-171 0 -205 10 -241 71 -38 65 -17
221 49 364 107 229 289 343 601 379 67 7 185 5 265 -4z m-3843 -28 c48 -25 76
-61 92 -117 8 -28 11 -345 11 -1062 l0 -1023 -225 0 -225 0 0 750 0 750 -210
0 -210 0 2 163 3 162 60 7 c196 21 368 171 439 382 6 17 16 18 114 14 85 -3
116 -8 149 -26z"/>
<path d="M12480 7530 c-1166 -58 -2299 -315 -3480 -788 -217 -87 -405 -169
-715 -310 -649 -296 -1230 -490 -1904 -637 -1262 -275 -2696 -269 -4156 15
-428 84 -645 144 -1409 396 -241 80 -443 143 -448 142 -16 -6 106 -162 206
-266 115 -120 214 -200 391 -317 757 -502 1660 -795 2825 -915 1507 -155 2833
-44 4120 345 419 127 758 254 1230 460 648 284 1177 481 1765 660 922 279
1873 463 2795 540 381 32 487 36 960 42 501 6 822 -4 1080 -32 123 -14 684
-88 755 -100 48 -9 18 9 -110 65 -915 398 -1822 615 -2885 690 -201 15 -809
20 -1020 10z"/>
<path d="M14560 6404 c-410 -22 -631 -40 -910 -74 -701 -86 -1423 -239 -2190
-466 -406 -120 -751 -240 -1795 -624 -1306 -480 -1990 -654 -2855 -726 -106
-9 -91 -14 150 -48 919 -130 1864 -94 2791 109 751 164 2458 572 3804 910 992
249 1347 327 1845 404 620 96 1099 134 1702 135 l387 1 -25 26 c-29 30 -112
56 -359 113 -490 113 -981 186 -1520 226 -138 11 -899 21 -1025 14z"/>
</g>
</svg>
